<?xml version="1.0" encoding="UTF-8" standalone="no"?>
<svg
   xmlns:dc="http://purl.org/dc/elements/1.1/"
   xmlns:cc="http://creativecommons.org/ns#"
   xmlns:rdf="http://www.w3.org/1999/02/22-rdf-syntax-ns#"
   xmlns:svg="http://www.w3.org/2000/svg"
   xmlns="http://www.w3.org/2000/svg"
   version="1.1"
   id="svg2"
   viewBox="0 0 24 24"
   height="24"
   width="24">
  <defs
     id="defs4" />
  <metadata
     id="metadata7">
    <rdf:RDF>
      <cc:Work
         rdf:about="">
        <dc:format>image/svg+xml</dc:format>
        <dc:type
           rdf:resource="http://purl.org/dc/dcmitype/StillImage" />
        <dc:title></dc:title>
      </cc:Work>
    </rdf:RDF>
  </metadata>
  <g
     transform="translate(0,-1028.3622)"
     id="layer1">
    <path
       id="path3358"
       d="m 1.1902885,1028.5423 c 1.3857099,0.053 2.9188039,0.2569 4.2184273,0.5617 0.4645379,0.1089 0.5303366,0.1388 0.5151537,0.2349 -0.00958,0.061 -1.2873298,5.1933 -2.8394562,11.4059 l -2.82205134,11.2959 -0.005539,-11.7671 -0.005539,-11.7671 0.93898434,0.036 z m 4.0791932,12.9314 c 2.6925949,-5.7811 4.9171673,-10.5458 4.9434933,-10.5878 0.03799,-0.062 0.177747,-0.011 0.677593,0.2389 1.163926,0.5837 2.467008,1.4099 3.590258,2.2764 0.527451,0.4068 0.60723,0.4887 0.545791,0.5605 -0.03958,0.047 -3.320601,4.0951 -7.2911725,8.9975 -7.0050645,8.6489 -7.37795091,9.1071 -7.3668056,9.0515 0.002817,-0.015 2.2082452,-4.7561 4.9008427,-10.537 z m 6.3197163,7.9135 c 6.174179,-1.5479 11.27806,-2.8284 11.341962,-2.8454 0.109129,-0.028 0.127029,0.025 0.294725,0.8841 0.323679,1.6586 0.457496,2.8477 0.45781,4.0682 l 1.68e-4,0.7428 -11.660234,0 c -6.4131259,0 -11.66023254,-0.01 -11.66023254,-0.018 0,-0.01 5.05160094,-1.2841 11.22578054,-2.8322 z m -2.1884889,-4.6121 c 4.8780069,-3.9895 8.9230789,-7.2967 8.9890439,-7.3492 0.118148,-0.094 0.127381,-0.085 0.618846,0.5759 0.856014,1.152 1.914858,2.9028 2.345046,3.8777 l 0.141973,0.3216 -0.211927,0.1081 c -0.208307,0.1063 -19.5515265,9.2046 -20.34566788,9.5698 -0.2235334,0.1027 -0.40642575,0.1785 -0.40642575,0.1684 0,-0.01 3.99110063,-3.2826 8.86911173,-7.2723 z"
       style="fill:#000000" />
  </g>
</svg>
