<?xml version="1.0" encoding="UTF-8" standalone="no"?>
<svg
   xmlns:dc="http://purl.org/dc/elements/1.1/"
   xmlns:cc="http://creativecommons.org/ns#"
   xmlns:rdf="http://www.w3.org/1999/02/22-rdf-syntax-ns#"
   xmlns:svg="http://www.w3.org/2000/svg"
   xmlns="http://www.w3.org/2000/svg"
   xmlns:sodipodi="http://sodipodi.sourceforge.net/DTD/sodipodi-0.dtd"
   xmlns:inkscape="http://www.inkscape.org/namespaces/inkscape"
   enable-background="new 0 0 24 24"
   viewBox="0 0 24 24"
   fill="black"
   width="48px"
   height="48px"
   id="svg2"
   version="1.1"
   inkscape:version="0.91 r13725"
   sodipodi:docname="airplane_2.svg">
  <metadata
     id="metadata14">
    <rdf:RDF>
      <cc:Work
         rdf:about="">
        <dc:format>image/svg+xml</dc:format>
        <dc:type
           rdf:resource="http://purl.org/dc/dcmitype/StillImage" />
      </cc:Work>
    </rdf:RDF>
  </metadata>
  <defs
     id="defs12" />
  <sodipodi:namedview
     pagecolor="#ffffff"
     bordercolor="#666666"
     borderopacity="1"
     objecttolerance="10"
     gridtolerance="10"
     guidetolerance="10"
     inkscape:pageopacity="0"
     inkscape:pageshadow="2"
     inkscape:window-width="1301"
     inkscape:window-height="744"
     id="namedview10"
     showgrid="false"
     inkscape:zoom="4.9166667"
     inkscape:cx="-17.79661"
     inkscape:cy="24"
     inkscape:window-x="65"
     inkscape:window-y="24"
     inkscape:window-maximized="1"
     inkscape:current-layer="svg2" />
  <path
     inkscape:connector-curvature="0"
     id="path6"
     d="m 10.5,7.67 0,-4.17 C 10.5,2.67 11.17,2 12,2 c 0.83,0 1.5,0.67 1.5,1.5 l 0,5.5 8.5,5 0,2 L 17.51,14.68 10.5,7.67 Z M 19.78,22.61 21.19,21.2 13.5,13.5 9.56,9.56 2.81,2.81 1.39,4.22 7.77,10.6 2,14 l 0,2 8.5,-2.5 0,5.5 -2.5,1.5 0,1.5 4,-1 4,1 0,-1.5 -2.5,-1.5 0,-2.67 6.28,6.28 z"
     style="fill:#26323f;fill-opacity:0.94117647" />
  <path
     style="fill:none"
     inkscape:connector-curvature="0"
     id="path8"
     d="M 0,0 24,0 24,24 0,24 0,0 Z" />
</svg>
