<?xml version="1.0" encoding="UTF-8" standalone="no"?>
<svg
   xmlns:dc="http://purl.org/dc/elements/1.1/"
   xmlns:cc="http://creativecommons.org/ns#"
   xmlns:rdf="http://www.w3.org/1999/02/22-rdf-syntax-ns#"
   xmlns:svg="http://www.w3.org/2000/svg"
   xmlns="http://www.w3.org/2000/svg"
   xmlns:sodipodi="http://sodipodi.sourceforge.net/DTD/sodipodi-0.dtd"
   xmlns:inkscape="http://www.inkscape.org/namespaces/inkscape"
   width="40mm"
   height="40mm"
   viewBox="0 0 141.73229 141.73232"
   id="svg4296"
   version="1.1"
   inkscape:version="0.91 r13725"
   sodipodi:docname="favicon.svg">
  <sodipodi:namedview
     pagecolor="#ffffff"
     bordercolor="#666666"
     borderopacity="1"
     objecttolerance="10"
     gridtolerance="10"
     guidetolerance="10"
     inkscape:pageopacity="0"
     inkscape:pageshadow="2"
     inkscape:window-width="1301"
     inkscape:window-height="744"
     id="namedview14"
     showgrid="false"
     inkscape:zoom="1.6651111"
     inkscape:cx="60.356333"
     inkscape:cy="70.866142"
     inkscape:window-x="65"
     inkscape:window-y="24"
     inkscape:window-maximized="1"
     inkscape:current-layer="svg4296"
     showguides="false" />
  <defs
     id="defs4298" />
  <metadata
     id="metadata4301">
    <rdf:RDF>
      <cc:Work
         rdf:about="">
        <dc:format>image/svg+xml</dc:format>
        <dc:type
           rdf:resource="http://purl.org/dc/dcmitype/StillImage" />
        <dc:title />
      </cc:Work>
    </rdf:RDF>
  </metadata>
  <rect
     y="-7.1875002e-06"
     x="-1.5258793e-05"
     height="70.866142"
     width="70.866142"
     id="rect4136"
     style="color:#000000;clip-rule:nonzero;display:inline;overflow:visible;visibility:visible;opacity:0.9;isolation:auto;mix-blend-mode:normal;color-interpolation:sRGB;color-interpolation-filters:linearRGB;solid-color:#000000;solid-opacity:1;fill:#f4511e;fill-opacity:1;fill-rule:evenodd;stroke:none;stroke-width:2;stroke-linecap:round;stroke-linejoin:round;stroke-miterlimit:4;stroke-dasharray:none;stroke-dashoffset:0;stroke-opacity:1;color-rendering:auto;image-rendering:auto;shape-rendering:auto;text-rendering:auto;enable-background:accumulate" />
  <rect
     y="-7.1875002e-06"
     x="70.866127"
     height="70.866142"
     width="70.866142"
     id="rect4138"
     style="color:#000000;clip-rule:nonzero;display:inline;overflow:visible;visibility:visible;opacity:0.9;isolation:auto;mix-blend-mode:normal;color-interpolation:sRGB;color-interpolation-filters:linearRGB;solid-color:#000000;solid-opacity:1;fill:#33691e;fill-opacity:1;fill-rule:evenodd;stroke:none;stroke-width:2;stroke-linecap:round;stroke-linejoin:round;stroke-miterlimit:4;stroke-dasharray:none;stroke-dashoffset:0;stroke-opacity:1;color-rendering:auto;image-rendering:auto;shape-rendering:auto;text-rendering:auto;enable-background:accumulate" />
  <rect
     y="70.866142"
     x="70.866127"
     height="70.866142"
     width="70.866142"
     id="rect4140"
     style="color:#000000;clip-rule:nonzero;display:inline;overflow:visible;visibility:visible;opacity:0.9;isolation:auto;mix-blend-mode:normal;color-interpolation:sRGB;color-interpolation-filters:linearRGB;solid-color:#000000;solid-opacity:1;fill:#4527a0;fill-opacity:0.94117647;fill-rule:evenodd;stroke:none;stroke-width:2;stroke-linecap:round;stroke-linejoin:round;stroke-miterlimit:4;stroke-dasharray:none;stroke-dashoffset:0;stroke-opacity:1;color-rendering:auto;image-rendering:auto;shape-rendering:auto;text-rendering:auto;enable-background:accumulate" />
  <rect
     y="70.866142"
     x="-1.5258793e-05"
     height="70.866142"
     width="70.866142"
     id="rect4142"
     style="color:#000000;clip-rule:nonzero;display:inline;overflow:visible;visibility:visible;opacity:0.9;isolation:auto;mix-blend-mode:normal;color-interpolation:sRGB;color-interpolation-filters:linearRGB;solid-color:#000000;solid-opacity:1;fill:#00695c;fill-opacity:0.94117647;fill-rule:evenodd;stroke:none;stroke-width:2;stroke-linecap:round;stroke-linejoin:round;stroke-miterlimit:4;stroke-dasharray:none;stroke-dashoffset:0;stroke-opacity:1;color-rendering:auto;image-rendering:auto;shape-rendering:auto;text-rendering:auto;enable-background:accumulate" />
  <g
     transform="translate(-1.5258793e-5,2)"
     style="font-style:normal;font-variant:normal;font-weight:normal;font-stretch:normal;font-size:162.50004578px;line-height:125%;font-family:Carlito;-inkscape-font-specification:'Carlito, Normal';text-align:center;letter-spacing:0px;word-spacing:0px;writing-mode:lr-tb;text-anchor:middle;fill:#000000;fill-opacity:1;stroke:none;stroke-width:1px;stroke-linecap:butt;stroke-linejoin:miter;stroke-opacity:1"
     id="flowRoot4144">
    <path
       d="m 86.814702,92.426979 -5.792238,32.373061 -6.268313,0 q -2.062988,0 -3.411866,-1.66627 -1.269531,-1.7456 -0.793457,-4.28466 l 4.760744,-26.422131 -16.265874,0 -4.681398,27.056891 q -0.55542,2.85645 -2.380372,4.12598 -1.745606,1.19019 -4.046632,1.19019 l -6.188966,0 5.792238,-32.373061 -9.600833,0 q -2.142335,0 -3.094483,-1.269531 -0.952149,-1.269532 -0.476075,-4.443361 l 0.634766,-4.443361 13.885502,0 4.284669,-24.755866 -15.789799,0 1.031494,-5.792238 q 0.396729,-2.301026 1.745606,-3.33252 1.428223,-1.110841 4.443361,-1.110841 l 9.918215,0 4.919435,-27.294929 q 0.396729,-2.301026 2.062989,-3.570558 1.745606,-1.348877 4.046632,-1.348877 l 6.268313,0 -5.792238,32.214364 16.345219,0 5.792238,-32.214364 6.188967,0 q 2.22168,0 3.491212,1.428223 1.348877,1.428223 0.952148,3.729249 l -4.919435,27.056892 14.678959,0 -1.03149,5.871584 q -0.39673,2.301026 -1.82496,3.332521 -1.42822,1.031494 -4.44336,1.031494 l -8.728026,0 -4.364015,24.755866 11.743167,0 q 2.142334,0 3.094484,1.269532 1.03149,1.269532 0.55542,4.443361 l -0.63477,4.44336 -16.107178,0 z m -26.422127,-10.156253 16.265874,0 4.364015,-24.755866 -16.34522,0 -4.284669,24.755866 z"
       style="font-style:normal;font-variant:normal;font-weight:normal;font-stretch:normal;font-size:162.50004578px;line-height:125%;font-family:Carlito;-inkscape-font-specification:'Carlito, Normal';text-align:center;writing-mode:lr-tb;text-anchor:middle;fill:#ffffff;fill-opacity:1"
       id="path3351" />
  </g>
</svg>
